<svg width="32" height="32" viewBox="0 0 32 32" class="absolute -bottom-2 left-12 w-24 text-yellow-200" xmlns="http://www.w3.org/2000/svg"><path d="M18.25 9.375C17.75 7.625 16 5.125 16 5.125C16 5.125 14.25 7.625 13.75 9.375C14.25 11.125 16 13.625 16 13.625C16 13.625 17.75 11.125 18.25 9.375Z" fill="currentColor"></path><path d="M9.75004 10.125C8.25004 11.125 6.75004 13.875 8.75004 15.625C9.14284 13.4646 9.68995 12.7854 10.3913 11.9146C10.5828 11.677 10.7856 11.4251 11 11.125L13.25 12.625C13.25 12.625 13.5 10.625 12.75 9.125C11.25 8.125 9.75004 7.875 9.75004 7.875V10.125Z" fill="currentColor"></path><path d="M22.25 10.125C23.75 11.125 25.25 13.875 23.25 15.625C22.8572 13.4646 22.3101 12.7854 21.6087 11.9146C21.4172 11.677 21.2144 11.4251 21 11.125L18.75 12.625C18.75 12.625 18.5 10.625 19.25 9.125C20.75 8.125 22.25 7.875 22.25 7.875V10.125Z" fill="currentColor"></path><path fill-rule="evenodd" clip-rule="evenodd" d="M11 13.125C9 15.125 9.25 17.125 9.25 17.125C7.75 15.125 5.25 14.625 3.25 14.625C4.12371 16.3724 5.7608 18.2153 7.39008 20.0493C9.49035 22.4136 11.5776 24.7632 12 26.875V22.125C12 22.125 13.75 23.625 16 24.375C18.25 23.625 20 22.125 20 22.125V26.875C20.4224 24.7632 22.5096 22.4136 24.6099 20.0493C26.2392 18.2153 27.8763 16.3724 28.75 14.625C26.75 14.625 24.25 15.125 22.75 17.125C22.75 17.125 23 15.125 21 13.125C21 13.125 19.75 15.625 16 16.625C12.25 15.625 11 13.125 11 13.125ZM10.6135 16.9637C12.9319 17.7524 14.0552 18.8518 14.2942 20.5726C11.2589 20.2141 10.6135 18.5651 10.6135 16.9637ZM21.3865 16.9637C19.0681 17.7524 17.9448 18.8518 17.7058 20.5726C20.7411 20.2141 21.3865 18.5651 21.3865 16.9637Z" fill="currentColor"></path></svg>