<svg width="32" height="32" viewBox="0 0 32 32" class="absolute -bottom-2 left-12 w-24 text-purple-300" xmlns="http://www.w3.org/2000/svg"><path d="M15.9997 19.339C16.7132 19.339 17.2917 17.9477 17.2917 16.7586C17.2917 15.5694 16.7132 15.0327 15.9997 15.0327C15.2862 15.0327 14.7079 15.5694 14.7079 16.7586C14.7079 17.9477 15.2862 19.339 15.9997 19.339Z" fill="currentColor"></path><path fill-rule="evenodd" clip-rule="evenodd" d="M11.6803 11.0327H12.3511C13.4192 10.3975 14.667 10.0327 15.9999 10.0327C17.3329 10.0327 18.5806 10.3975 19.6488 11.0327H20.3195C20.3195 9.03271 20.3195 8.03553 18.9999 6.03271C21.3332 6.53271 25.9999 9.43271 25.9999 17.0327C24.3362 17.6982 23.0184 19.4492 22.3345 20.4989C21.1392 22.777 18.751 24.3309 15.9999 24.3309C13.2488 24.3309 10.8606 22.777 9.66527 20.4989C8.98137 19.4492 7.66364 17.6982 5.9999 17.0327C5.9999 9.43271 10.6666 6.53271 12.9999 6.03271C11.6803 8.03553 11.6803 9.03271 11.6803 11.0327ZM19.7496 16.3329C19.7496 19.1532 18.0709 21.0327 16 21.0327C13.9291 21.0327 12.2502 19.1532 12.2502 16.3329C12.2502 14.262 13.9967 13.5333 16 13.5333C18.0034 13.5333 19.7496 14.262 19.7496 16.3329Z" fill="currentColor"></path><path d="M22.1668 25.0509C22.3553 24.4995 22.678 24.0152 23.0006 23.5309C23.4138 22.9108 23.8269 22.2909 23.9576 21.5307C24.0044 21.2585 24.2404 21.0099 24.4829 21.142C24.6688 21.2433 24.7837 21.4011 24.8964 21.556C25.0726 21.798 25.2434 22.0327 25.6711 22.0327C26.6434 22.0327 27 22.0327 27 23.0332C27 23.9184 25.4367 25.585 22.997 25.9576C22.451 26.041 21.9881 25.5736 22.1668 25.0509Z" fill="currentColor"></path><path d="M8.99936 23.5309C9.322 24.0152 9.64473 24.4995 9.83321 25.0509C10.0119 25.5736 9.549 26.041 9.00297 25.9576C6.56334 25.585 5 23.9184 5 23.0332C5 22.0327 5.35661 22.0327 6.32887 22.0327C6.75662 22.0327 6.92743 21.798 7.10356 21.556C7.21629 21.4011 7.33121 21.2433 7.51707 21.142C7.75959 21.0099 7.99559 21.2585 8.0424 21.5307C8.17314 22.2909 8.58618 22.9108 8.99936 23.5309Z" fill="currentColor"></path></svg>