<svg width="32" height="32" viewBox="0 0 32 32" class="absolute -bottom-2 left-12 w-24 text-purple-400" xmlns="http://www.w3.org/2000/svg"><path fill-rule="evenodd" clip-rule="evenodd" d="M18.2557 5.31855L26.3761 9.8299C26.7612 10.0438 27 10.4497 27 10.8902C27 11.0785 26.9562 11.2642 26.872 11.4326L24.5883 16C24.0923 21.0584 20.4607 25.5315 19.333 26.8109C19.1841 26.9799 18.9147 26.9207 18.8435 26.7069L18 24.1765H14L13.1565 26.7069C13.0853 26.9207 12.8159 26.9799 12.667 26.8109C11.5393 25.5315 7.90768 21.0584 7.41174 16L5.12805 11.4326C5.04384 11.2642 5 11.0785 5 10.8902C5 10.4497 5.23881 10.0438 5.62386 9.8299L13.7443 5.31855C13.8276 5.27226 13.9223 5.35774 13.8848 5.44536L11 12.1765C11.8333 13.0098 14 13.7765 16 10.1765C18 13.7765 20.1667 13.0098 21 12.1765L18.1152 5.44536C18.0777 5.35774 18.1724 5.27226 18.2557 5.31855ZM16 17.1765C16.8284 17.1765 17.5 16.5049 17.5 15.6765C17.5 14.8481 16.8284 14.1765 16 14.1765C15.1716 14.1765 14.5 14.8481 14.5 15.6765C14.5 16.5049 15.1716 17.1765 16 17.1765ZM16 22.1765C16.8284 22.1765 17.5 21.5049 17.5 20.6765C17.5 19.8481 16.8284 19.1765 16 19.1765C15.1716 19.1765 14.5 19.8481 14.5 20.6765C14.5 21.5049 15.1716 22.1765 16 22.1765ZM20.25 18.1765C20.25 19.0049 19.5784 19.6765 18.75 19.6765C17.9216 19.6765 17.25 19.0049 17.25 18.1765C17.25 17.3481 17.9216 16.6765 18.75 16.6765C19.5784 16.6765 20.25 17.3481 20.25 18.1765ZM13.25 19.6765C14.0784 19.6765 14.75 19.0049 14.75 18.1765C14.75 17.3481 14.0784 16.6765 13.25 16.6765C12.4216 16.6765 11.75 17.3481 11.75 18.1765C11.75 19.0049 12.4216 19.6765 13.25 19.6765Z" fill="currentColor"></path></svg>