<svg
    width="32"
    height="32"
    viewBox="0 0 32 32"
    class="absolute -bottom-2 left-12 w-24 text-purple-500"
    xmlns="http://www.w3.org/2000/svg"
>
    <path
        fill-rule="evenodd"
        clip-rule="evenodd"
        d="M24 7.26397C27 7.26397 27 10.264 27 11.264C27 14.264 24 15.264 24 15.264H27C26.0189 15.918 25.3587 17.1069 24.6345 18.4107C23.1444 21.0938 21.3837 24.264 16 24.264C10.6163 24.264 8.85561 21.0938 7.36548 18.4107C6.64135 17.1069 5.9811 15.918 5 15.264H8C8 15.264 5 14.264 5 11.264C5 10.264 5 7.26397 8 7.26397H9.58357C10.5151 7.26397 11.4337 7.0471 12.2669 6.63052L15.1056 5.21115C15.6686 4.92962 16.3314 4.92962 16.8944 5.21115L19.7331 6.63051C20.5663 7.0471 21.4849 7.26397 22.4164 7.26397H24ZM19.5354 12.264L15.9999 8.72845L12.4644 12.264L13.7322 13.5319L10.4646 16.7995L14.0001 20.335L15.9993 18.3359L17.9984 20.335L21.5339 16.7995L18.2669 13.5325L19.5354 12.264Z"
        fill="currentColor"
    ></path>
</svg>
